# xmcd
#
# Track frame offsets:
#	150
#	10412
#	22215
#	38287
#	50942
#	60950
#	70835
#	82660
#	94607
#	106195
#	117910
#	132562
#	146742
#	160915
#	174815
#	187940
#	199182
#	209440
#	219632
#	230817
#	240452
#	252862
#	264975
#	272945
#	286195
#	297177
#	306542
#	313730
#	327185
#	340762
#
# Disc length: 4678 seconds
#
# Revision: 1
# Processed by: cddbd v1.4PL0 Copyright (c) Steve Scherf et al.
# Submitted via: CDmax 1.8
#
DISCID=b912441e
DTITLE=Bob King - Songs That Tell A Story
DYEAR=1900
DGENRE=Country
TTITLE0=You and my old guitar
TTITLE1=The little shirt my mother made for me
TTITLE2=Patanio, the pride of the plains
TTITLE3=Mommy please stay Home with me
TTITLE4=I'm just here to get my baby out of jail
TTITLE5=The french song (&Marie)
TTITLE6=On the banks of the old Ponchartrain
TTITLE7=When the works all done this fall
TTITLE8=An old log cabin for sale
TTITLE9=Driftwood on the river
TTITLE10=Strawberry roan
TTITLE11=Rockin' alone in an old rockin' chair
TTITLE12=I've been down that road before
TTITLE13=The ballad of the chapeau boys
TTITLE14=Mary Ann regrets
TTITLE15=Memories of you (Souvenirs de toi) Marie King
TTITLE16=Rescue from the moose river gold mine
TTITLE17=When it's lamplightning time in the valley
TTITLE18=The cat came back
TTITLE19=The ballad of Jed Camplett
TTITLE20=Bluest man in town
TTITLE21=Cowboy
TTITLE22=Jimmie Brown the newsboy
TTITLE23=Little Tom
TTITLE24=Train of memories
TTITLE25=French canadian girl
TTITLE26=Road paved with heartaches
TTITLE27=It breaks a mother's heart
TTITLE28=Once more
TTITLE29=Coconut Joe
EXTD=
EXTT0=
EXTT1=
EXTT2=
EXTT3=
EXTT4=
EXTT5=
EXTT6=
EXTT7=
EXTT8=
EXTT9=
EXTT10=
EXTT11=
EXTT12=
EXTT13=
EXTT14=
EXTT15=
EXTT16=
EXTT17=
EXTT18=
EXTT19=
EXTT20=
EXTT21=
EXTT22=
EXTT23=
EXTT24=
EXTT25=
EXTT26=
EXTT27=
EXTT28=
EXTT29=
PLAYORDER=
